<svg width="512" height="471" viewBox="0 0 512 471" fill="none" xmlns="http://www.w3.org/2000/svg">
<path d="M470.549 91.5729L313.237 16.6289C278.609 -4.05508 235.509 -4.42208 200.533 15.6689L41.4512 91.5729C40.8542 91.8719 40.2352 92.1919 39.6592 92.5329C1.90718 114.119 -11.1988 162.222 10.3872 199.974C17.7042 212.772 28.4672 223.258 41.4512 230.24L85.3342 251.147V355.68C85.3602 402.423 115.775 443.719 160.406 457.611C191.465 466.596 223.67 470.995 256.001 470.667C288.327 471.029 320.532 466.667 351.596 457.718C396.227 443.827 426.642 402.53 426.668 355.787V251.104L469.335 230.709V406.666C469.335 418.448 478.886 427.999 490.668 427.999C502.45 427.999 512.001 418.448 512.001 406.666V150.666C512.143 125.615 492.363 102.473 470.549 91.5729ZM384 355.787C384.011 383.746 365.871 408.477 339.2 416.864C312.154 424.592 284.127 428.343 256 428C227.873 428.343 199.846 424.592 172.8 416.864C146.129 408.476 127.989 383.746 128 355.787V271.478L198.763 305.185C216.223 315.553 236.164 321.001 256.47 320.95C275.798 321.087 294.801 315.97 311.446 306.145L384 271.477V355.787ZM452.267 191.733L291.371 268.533C268.937 281.596 241.13 281.226 219.051 267.573L61.6322 192.693C44.0852 183.231 37.5312 161.336 46.9932 143.79C50.1932 137.856 54.9912 132.937 60.8432 129.589L220.736 53.2159C243.177 40.1819 270.969 40.5509 293.056 54.1759L450.368 129.12C461.937 135.544 469.175 147.675 469.333 160.907C469.354 173.441 462.9 185.097 452.267 191.733Z" fill="#CCCCCC"/>
</svg>
