<svg width="512" height="512" viewBox="0 0 512 512" fill="none" xmlns="http://www.w3.org/2000/svg">
<path d="M472.96 38.8266L450.56 19.4132C424.747 -6.40011 382.933 -6.40011 357.12 19.4132C356.48 20.0532 317.013 71.4666 317.013 71.4666C292.693 97.0666 292.693 137.387 317.013 162.773L341.76 193.92C310.613 264.533 262.187 313.173 193.92 342.187L162.773 317.227C137.387 292.693 96.8534 292.693 71.4667 317.227C71.4667 317.227 20.0534 356.693 19.4134 357.333C-6.39992 383.147 -6.39992 424.96 18.3467 449.707L39.6801 474.24C64.2134 498.773 97.2801 512.213 133.12 512.213C296.107 512.213 512 296.107 512 133.333C512 97.7066 498.56 64.4266 472.96 39.0399V38.8266ZM133.12 469.333C108.8 469.333 86.4001 460.373 71.0401 444.8L49.7067 420.267C40.9601 411.52 40.5334 397.227 48.8534 388.053C48.8534 388.053 99.8401 348.8 100.48 348.16C109.227 339.413 124.587 339.413 133.547 348.16C134.187 348.8 177.067 383.147 177.067 383.147C183.04 387.84 190.933 389.12 197.973 386.347C286.293 352.64 349.653 289.493 386.133 198.4C388.907 191.36 387.84 183.253 382.933 177.067C382.933 177.067 348.587 133.973 348.16 133.547C338.987 124.373 338.987 109.653 348.16 100.48C348.8 99.8399 388.053 48.8532 388.053 48.8532C397.227 40.5332 411.52 40.7466 421.333 50.5599L443.733 69.9732C460.16 86.3999 469.333 108.8 469.333 133.12C469.333 281.6 260.907 469.333 133.12 469.333Z" fill="#CCCCCC"/>
</svg>
