<svg width="512" height="512" viewBox="0 0 512 512" fill="none" xmlns="http://www.w3.org/2000/svg">
<g clip-path="url(#clip0_66_48)">
<path d="M341.333 149.333H170.667C158.933 149.333 149.333 158.933 149.333 170.667V341.333C149.333 353.067 158.933 362.667 170.667 362.667H341.333C353.067 362.667 362.667 353.067 362.667 341.333V170.667C362.667 158.933 353.067 149.333 341.333 149.333ZM320 320H192V192H320V320ZM490.667 234.667C502.4 234.667 512 225.067 512 213.333C512 201.6 502.4 192 490.667 192H469.333V149.333H490.667C502.4 149.333 512 139.733 512 128C512 116.267 502.4 106.667 490.667 106.667H460.373C449.707 82.1333 429.867 62.5067 405.333 51.6267V21.3333C405.333 9.6 395.733 0 384 0C372.267 0 362.667 9.6 362.667 21.3333V42.6667H320V21.3333C320 9.6 310.4 0 298.667 0C286.933 0 277.333 9.6 277.333 21.3333V42.6667H234.667V21.3333C234.667 9.6 225.067 0 213.333 0C201.6 0 192 9.6 192 21.3333V42.6667H149.333V21.3333C149.333 9.6 139.733 0 128 0C116.267 0 106.667 9.6 106.667 21.3333V51.6267C82.1333 62.2933 62.5067 82.1333 51.6267 106.667H21.3333C9.6 106.667 0 116.267 0 128C0 139.733 9.6 149.333 21.3333 149.333H42.6667V192H21.3333C9.6 192 0 201.6 0 213.333C0 225.067 9.6 234.667 21.3333 234.667H42.6667V277.333H21.3333C9.6 277.333 0 286.933 0 298.667C0 310.4 9.6 320 21.3333 320H42.6667V362.667H21.3333C9.6 362.667 0 372.267 0 384C0 395.733 9.6 405.333 21.3333 405.333H51.6267C62.2933 429.867 82.1333 449.493 106.667 460.373V490.667C106.667 502.4 116.267 512 128 512C139.733 512 149.333 502.4 149.333 490.667V469.333H192V490.667C192 502.4 201.6 512 213.333 512C225.067 512 234.667 502.4 234.667 490.667V469.333H277.333V490.667C277.333 502.4 286.933 512 298.667 512C310.4 512 320 502.4 320 490.667V469.333H362.667V490.667C362.667 502.4 372.267 512 384 512C395.733 512 405.333 502.4 405.333 490.667V460.373C429.867 449.707 449.493 429.867 460.373 405.333H490.667C502.4 405.333 512 395.733 512 384C512 372.267 502.4 362.667 490.667 362.667H469.333V320H490.667C502.4 320 512 310.4 512 298.667C512 286.933 502.4 277.333 490.667 277.333H469.333V234.667H490.667ZM362.667 426.667H149.333C114.133 426.667 85.3333 397.867 85.3333 362.667V149.333C85.3333 114.133 114.133 85.3333 149.333 85.3333H362.667C397.867 85.3333 426.667 114.133 426.667 149.333V362.667C426.667 397.867 397.867 426.667 362.667 426.667Z" fill="#CCCCCC"/>
</g>
<defs>
<clipPath id="clip0_66_48">
<rect width="512" height="512" fill="white"/>
</clipPath>
</defs>
</svg>
