<svg width="24" height="24" viewBox="0 0 24 24" fill="none" xmlns="http://www.w3.org/2000/svg">
<g clip-path="url(#clip0_66_46)">
<path d="M19 0H5C2.243 0 0 2.243 0 5V19C0 21.757 2.243 24 5 24H19C21.757 24 24 21.757 24 19V5C24 2.243 21.757 0 19 0ZM22 19C22 20.654 20.654 22 19 22H5C3.346 22 2 20.654 2 19V5C2 3.346 3.346 2 5 2H19C20.654 2 22 3.346 22 5V19ZM12 8V13C12 15.206 10.206 17 8 17C5.794 17 4 15.206 4 13V8C4 7.448 4.447 7 5 7C5.553 7 6 7.448 6 8V13C6 14.103 6.897 15 8 15C9.103 15 10 14.103 10 13V8C10 7.448 10.447 7 11 7C11.553 7 12 7.448 12 8ZM19.871 8.49L17.897 12L19.871 15.51C20.142 15.991 19.972 16.601 19.49 16.872C19.335 16.959 19.167 17 19.001 17C18.651 17 18.313 16.816 18.129 16.49L16.75 14.039L15.371 16.49C15.188 16.816 14.849 17 14.499 17C14.333 17 14.165 16.959 14.01 16.872C13.529 16.601 13.358 15.992 13.629 15.51L15.603 12L13.629 8.49C13.358 8.009 13.528 7.399 14.01 7.128C14.492 6.857 15.1 7.028 15.371 7.509L16.75 9.96L18.129 7.509C18.399 7.028 19.007 6.856 19.49 7.128C19.971 7.399 20.142 8.008 19.871 8.49Z" fill="#CCCCCC"/>
</g>
<defs>
<clipPath id="clip0_66_46">
<rect width="24" height="24" fill="white"/>
</clipPath>
</defs>
</svg>
